<?xml version="1.0" standalone="no"?>
<!DOCTYPE svg PUBLIC "-//W3C//DTD SVG 1.1//EN" "http://www.w3.org/Graphics/SVG/1.1/DTD/svg11.dtd" >
<svg xmlns="http://www.w3.org/2000/svg">
<metadata></metadata>
<defs>
<font id="MuliItalic" horiz-adv-x="1190" >
<font-face units-per-em="2048" ascent="1638" descent="-410" />
<missing-glyph horiz-adv-x="599" />
<glyph horiz-adv-x="0" />
<glyph unicode="&#xd;" horiz-adv-x="0" />
<glyph unicode=" "  horiz-adv-x="599" />
<glyph unicode="&#x09;" horiz-adv-x="599" />
<glyph unicode="&#xa0;" horiz-adv-x="599" />
<glyph unicode="!" horiz-adv-x="737" d="M258 -23l16 206h214l-16 -206h-214zM340 373l45 1078h195l-125 -1078h-115z" />
<glyph unicode="&#x22;" horiz-adv-x="720" d="M228 989v462h183l-52 -462h-131zM517 989v462h184l-54 -462h-130z" />
<glyph unicode="#" horiz-adv-x="1242" d="M80 485l21 126h265q22 93 72 275h-261l22 124h270l112 410h146l-110 -410h261l109 410h146l-111 -410h241l-23 -124h-250l-73 -275h252l-24 -126h-260l-116 -425h-145l113 425h-261l-115 -425h-146l117 425h-252zM508 611h264l73 275h-261z" />
<glyph unicode="$" d="M209 89l60 134q125 -90 272 -96l44 521q-78 36 -147.5 71.5t-119.5 80.5q-110 96 -99 247q14 155 143 268q126 110 285 122l7 138h124l-8 -136q212 -4 331 -113l-59 -128q-98 95 -282 101l-43 -529q222 -90 303 -166q101 -94 88 -243q-11 -159 -146 -262 q-125 -95 -307 -110l-10 -161h-123l9 156q-189 4 -322 105zM409 1059q-11 -134 108 -203q36 -21 79 -38l40 475q-93 -12 -157 -77q-62 -62 -70 -157zM664 131q170 23 238 139q23 39 27 87t-11 84t-46 65q-52 50 -166 99z" />
<glyph unicode="%" horiz-adv-x="1985" d="M251 1064q14 165 119 272q107 111 270 111q83 0 146.5 -28.5t104.5 -78.5q82 -102 70 -272q-14 -164 -119 -270q-109 -112 -268 -112q-164 0 -252 109q-83 104 -71 269zM395 1065q-13 -183 99 -245q38 -21 92 -21q102 0 166 83q57 74 66 187q13 183 -98 245 q-37 21 -91 21t-96 -22.5t-71 -60.5q-58 -73 -67 -187zM439 -5l1018 1441h155l-1019 -1441h-154zM1124 351q14 166 118 273q110 111 270 111q84 0 147.5 -28.5t104.5 -78.5q82 -102 70 -272q-14 -164 -118 -271q-109 -112 -270 -112q-162 0 -250 109q-84 105 -72 269z M1268 350q-13 -180 98 -243q38 -21 92 -21q104 0 166 83q55 73 66 188q13 182 -96 244q-37 21 -92 21t-97 -23t-71 -61q-57 -75 -66 -188z" />
<glyph unicode="&#x26;" horiz-adv-x="1647" d="M147 402q18 213 268 368q71 44 146 82l-73 82q-67 77 -83.5 136.5t-11.5 121.5t38 116.5t85 91.5q105 73 261 73t253 -69q111 -81 100 -216q-17 -204 -336 -366l378 -413q119 163 172 388q28 121 24.5 170.5t-3.5 64.5h173q-3 -295 -152 -573q-47 -89 -107 -164 q85 -95 138 -129q88 -55 208 -80l-140 -98q-85 13 -138 50q-67 47 -166 148q-232 -213 -522 -213q-238 0 -381 113q-147 116 -131 316zM327 406q-10 -125 86 -208q96 -82 255 -82q182 0 328 106q44 32 85 69q-2 1 -51 54t-87.5 94t-77.5 84l-212 227q-146 -72 -205 -124 q-112 -101 -121 -220zM565 1178q-6 -72 22 -120q42 -73 111 -140q251 128 260 260q6 81 -54 124q-50 38 -110 38t-96.5 -10t-65.5 -30q-61 -45 -67 -122z" />
<glyph unicode="'" horiz-adv-x="554" d="M290 989v462h184l-54 -462h-130z" />
<glyph unicode="(" horiz-adv-x="628" d="M203 359q-61 531 341 1092h148q-295 -418 -330 -861q-24 -319 104 -650q40 -105 92 -199h-146q-173 301 -209 618z" />
<glyph unicode=")" horiz-adv-x="628" d="M36 -259q289 411 327 863q25 310 -101 641q-40 107 -95 206h147q310 -559 174 -1087q-81 -314 -303 -623h-149z" />
<glyph unicode="*" horiz-adv-x="1065" d="M264 1136l32 135l274 -123l-17 303h149l-31 -298l245 121l54 -125l-270 -88l181 -251l-131 -73l-137 266l-174 -258l-118 75l210 238z" />
<glyph unicode="+" horiz-adv-x="1458" d="M238 485l9 139h448l36 423h150l-35 -423h448l-10 -139h-448l-36 -423h-151l35 423h-446z" />
<glyph unicode="," horiz-adv-x="540" d="M58 -256l143 463h187l-199 -463h-131z" />
<glyph unicode="-" horiz-adv-x="728" d="M118 489l10 137h571l-10 -137h-571z" />
<glyph unicode="." horiz-adv-x="540" d="M158 -11l17 210h217l-17 -210h-217z" />
<glyph unicode="/" horiz-adv-x="717" d="M-64 -215l768 1666h167l-772 -1666h-163z" />
<glyph unicode="0" d="M145 715q26 347 172 541q149 197 403 197q133 0 225 -56.5t143 -157.5q94 -187 66 -545q-27 -332 -172 -520q-151 -197 -397 -197q-256 0 -366 207q-101 191 -74 531zM318 585q-3 -352 168 -441q49 -25 124.5 -25t139.5 42.5t109 118.5q110 186 117 553q8 357 -162 452 q-49 27 -125 27t-140.5 -43t-110.5 -121q-118 -195 -120 -563z" />
<glyph unicode="1" d="M333 0l11 143h219l87 1102q-136 -74 -289 -132l12 156q140 48 297 142l167 27l-102 -1295h217l-11 -143h-608z" />
<glyph unicode="2" d="M99 0l11 147q75 67 165 144t180.5 158.5t176 165.5t152.5 165q148 175 157 291q8 106 -64 170q-75 66 -201 66q-177 0 -296 -133q-38 -43 -65 -96l-90 97q92 196 321 255q72 18 160.5 18t168.5 -26t136 -74q120 -103 106 -270q-18 -231 -381 -563q-106 -97 -189 -168 q-166 -142 -231 -202h730l-11 -145h-936z" />
<glyph unicode="3" d="M126 223l91 101q44 -148 211 -192q52 -13 117 -13t129 19t113 54q105 75 115 202q17 216 -218 263q-75 15 -143.5 15t-102.5 -2l10 144q14 -1 31 -1h31q282 0 366 143q30 52 35 119t-12.5 108.5t-52.5 68.5q-72 54 -199 54q-220 0 -339 -178l-91 89q51 107 176 170 q122 62 271 62q189 0 312 -93q133 -102 120 -270q-15 -192 -194 -292q-55 -30 -122 -48q229 -46 287 -224q19 -59 12.5 -143t-55 -161t-126.5 -130q-160 -111 -380 -111q-248 0 -350 139q-33 46 -42 107z" />
<glyph unicode="4" horiz-adv-x="1189" d="M53 351l10 124l739 945h208l-74 -937h214l-10 -132h-214l-28 -351h-172l28 351h-701zM234 483h530l64 809l-99 -146z" />
<glyph unicode="5" d="M161 173l90 116q104 -170 305 -170q161 0 264 99q97 93 107 234q10 132 -59 216q-75 90 -215 90q-147 0 -222 -100l-176 -6l61 773h791l-12 -145h-628l-49 -441q120 66 241 66t205 -34.5t140 -95.5q114 -125 100 -326q-16 -203 -166 -335q-155 -137 -391 -137 q-196 0 -316 108q-41 37 -70 88z" />
<glyph unicode="6" d="M145 678q27 335 192 546q178 229 451 229q229 0 314 -140l-64 -112q-92 111 -260 111q-198 0 -320 -183q-109 -163 -129 -405q120 190 388 190q208 0 320 -124q113 -125 97 -336q-16 -206 -159 -340q-146 -137 -365 -137q-255 0 -376 195q-114 183 -89 506zM326.5 465 q-3.5 -39 11.5 -108t51 -122q79 -116 234 -116q138 0 231 95q91 93 101 234q20 228 -143 304q-55 26 -123 26t-121 -15.5t-98 -43.5q-89 -56 -134 -153q-2 -18 -3.5 -29t-2 -18t-0.5 -11t-3.5 -43z" />
<glyph unicode="7" horiz-adv-x="1189" d="M195 1275l11 145h970l-7 -91l-690 -1329h-186l680 1275h-778z" />
<glyph unicode="8" d="M121 367q11 137 100 235.5t246 144.5q-129 42 -196.5 129.5t-57.5 214.5q14 166 155 267q135 95 333 95q197 0 317 -95q127 -101 113 -267q-10 -127 -90.5 -214.5t-217.5 -129.5q151 -46 224 -144.5t62 -235.5q-14 -182 -171 -289q-148 -101 -353 -101q-206 0 -337 101 q-141 108 -127 289zM299 378q-5 -62 15 -110.5t60 -81.5q80 -67 222 -67q222 0 305 149q27 48 32 110t-14.5 110.5t-58.5 85.5q-74 69 -221 99q-229 -46 -307 -185q-28 -48 -33 -110zM384.5 1085q-8.5 -108 61 -173.5t205.5 -91.5q290 54 308 266q8 108 -72 172 q-75 59 -197 59q-121 0 -206 -59q-91 -65 -99.5 -173z" />
<glyph unicode="9" d="M166 984q16 204 159 334q148 135 371 135q246 0 364 -179q119 -180 93 -516q-29 -355 -194 -564q-172 -217 -446 -217q-222 0 -320 144l63 113q97 -115 271 -115q189 0 314 177q114 160 133 409v2q-124 -174 -387 -174q-206 0 -323 127q-114 123 -98 324zM342 989 q-17 -221 148 -292q56 -24 125.5 -24t123.5 16t99 45q94 62 136 160l1 35q13 156 -56 261q-80 122 -242 122q-138 0 -232 -92q-91 -90 -103 -231z" />
<glyph unicode=":" horiz-adv-x="540" d="M158 -11l17 210h217l-17 -210h-217zM225 841l17 210h217l-17 -210h-217z" />
<glyph unicode=";" horiz-adv-x="540" d="M80 -256l142 463h188l-199 -463h-131zM225 841l17 210h217l-17 -210h-217z" />
<glyph unicode="&#x3c;" horiz-adv-x="1458" d="M258 508l8 87l1044 472l-11 -153l-818 -362l757 -352l-11 -152z" />
<glyph unicode="=" horiz-adv-x="1458" d="M220 283l11 137h1049l-11 -137h-1049zM251 689l11 138h1049l-11 -138h-1049z" />
<glyph unicode="&#x3e;" horiz-adv-x="1458" d="M220 58l12 154l816 343l-755 371l12 152l967 -484l-7 -89z" />
<glyph unicode="?" horiz-adv-x="1032" d="M283 1267l11 146q139 65 259 65t197.5 -21.5t132.5 -64.5q118 -93 105 -259q-11 -143 -224 -335q-131 -118 -174 -178t-46 -95q-5 -77 5 -157h-164v58q0 72 4 118.5t36.5 97.5t78.5 97t99.5 89.5t99.5 89.5q108 108 116 207q8 107 -75 163q-72 48 -202.5 48t-258.5 -69z M328 -11l17 210h217l-17 -210h-217z" />
<glyph unicode="@" horiz-adv-x="1895" d="M181 650.5q11 140.5 48.5 243.5t99 191.5t144 160.5t179.5 123q205 107 435 107q333 0 545 -193q135 -123 177 -303q21 -89 12.5 -198.5t-57.5 -212.5t-122 -179.5t-161 -120.5t-175 -44q-190 0 -205 159q-113 -127 -267 -127q-129 0 -210 89q-91 100 -78 264 q15 203 177 366q160 162 344 162q78 0 136.5 -31t83.5 -85l25 85h146l-77 -250q-53 -173 -86 -276t-35.5 -143.5t14 -64t69 -23.5t109.5 37t103 99q101 134 115 310q18 246 -148 404q-166 157 -449 157q-148 0 -278 -53.5t-228.5 -146t-160 -216.5t-72.5 -265t29 -262.5 t124 -211.5q179 -190 485 -190t529 180l74 -70q-165 -165 -439 -215q-88 -16 -178 -16q-182 0 -330.5 60t-252 165.5t-154.5 249.5t-40 284.5zM701.5 596q-4.5 -58 4.5 -94t29 -62q42 -55 117 -55t135 37.5t107 99.5q99 131 111 299q18 186 -146 186q-136 0 -245 -141 q-48 -62 -78 -137t-34.5 -133z" />
<glyph unicode="A" horiz-adv-x="1425" d="M13 0l719 1456h185l490 -1456h-191l-132 397h-698l-187 -397h-186zM453 545h584l-186 605q-16 42 -42 148q-12 -32 -23 -59q-26 -61 -41 -90z" />
<glyph unicode="B" horiz-adv-x="1352" d="M202 0l115 1456h290q195 0 284.5 -10.5t152 -38.5t106.5 -71q82 -83 82 -204q0 -13 -1 -27q-15 -184 -181 -287q-51 -32 -110 -49q64 -8 129 -42.5t105 -80.5q73 -86 72 -207q0 -18 -1 -36q-15 -172 -145 -281q-143 -122 -371 -122h-527zM386 148h283q374 0 394 258 q1 16 1 30q0 130 -95 186q-97 58 -315 58h-226zM439 828h196q268 0 369 127q38 47 44 121q1 14 1 27q0 55 -21 93q-26 46 -75 70q-82 42 -268 42h-208z" />
<glyph unicode="C" horiz-adv-x="1399" d="M164 713q25 319 230 539q135 146 328 202q98 29 222 29q255 0 415 -154l-73 -110q-144 115 -348 115q-263 0 -425 -195q-146 -176 -166 -427q-3 -37 -2 -72q0 -205 95 -340q126 -175 382.5 -175t431.5 143l47 -141q-198 -150 -518 -150q-318 0 -486 217 q-136 175 -136 435q0 41 3 84z" />
<glyph unicode="D" horiz-adv-x="1546" d="M193 0l115 1456h315q588 0 775 -290q92 -144 92 -358q0 -41 -3 -84q-26 -334 -258 -528q-235 -196 -619 -196h-417zM377 148h261q306 0 482 161q164 150 185 412q3 40 3 78q0 258 -150 380q-159 129 -526 129h-164z" />
<glyph unicode="E" horiz-adv-x="1218" d="M205 0l115 1456h867l-12 -148h-695l-38 -488h657l-12 -148h-657l-41 -524h725l-12 -148h-897z" />
<glyph unicode="F" horiz-adv-x="1137" d="M197 0l115 1456h843l-12 -148h-671l-39 -493h637l-12 -148h-637l-52 -667h-172z" />
<glyph unicode="G" horiz-adv-x="1530" d="M171 701q25 331 239 551q225 231 566 231q318 0 453 -182l-77 -105q-130 138 -391 138q-266 0 -436 -190q-156 -176 -175 -430q-3 -39 -3 -76q0 -354 278 -470q103 -43 217 -43q207 0 352 57l34 426h-361l11 149h533l-53 -676q-228 -104 -511 -104q-353 0 -531 199 q-149 166 -149 437q0 43 4 88z" />
<glyph unicode="H" horiz-adv-x="1555" d="M202 0l115 1456h172l-50 -634h802l50 634h171l-115 -1456h-171l53 674h-802l-53 -674h-172z" />
<glyph unicode="I" horiz-adv-x="591" d="M210 0l115 1456h172l-115 -1456h-172z" />
<glyph unicode="J" horiz-adv-x="939" d="M77 81l60 116q87 -72 198 -72q128 0 203 104q71 97 83 259l76 968h172l-75 -957q-20 -252 -146 -388q-125 -134 -329 -134q-146 0 -242 104z" />
<glyph unicode="K" horiz-adv-x="1294" d="M210 0l115 1456h172l-52 -660l696 660h216l-743 -678l682 -778h-236l-621 725l-57 -725h-172z" />
<glyph unicode="L" horiz-adv-x="1120" d="M202 0l115 1456h172l-103 -1308h697l-10 -148h-871z" />
<glyph unicode="M" horiz-adv-x="2002" d="M200 0l115 1456h238l393 -1040l68 -204h2l101 207l560 1037h234l-115 -1456h-168l98 1251l-60 -121l-606 -1130h-126l-417 1108l-47 160l-100 -1268h-170z" />
<glyph unicode="N" horiz-adv-x="1594" d="M193 0l115 1456h206l659 -1114l68 -127l98 1241h171l-115 -1456h-208l-662 1113l-63 124l-97 -1237h-172z" />
<glyph unicode="O" horiz-adv-x="1663" d="M172 729q24 333 233 541q215 213 549 213q324 0 500 -207q152 -177 151 -457q0 -43 -3 -89q-14 -169 -73 -306.5t-159 -237.5q-211 -209 -543 -209q-331 0 -508 204q-151 174 -151 455q0 45 4 93zM355 722q-3 -35 -3 -69q0 -85 18 -163q25 -110 85 -191 q129 -174 382 -174q255 0 411 175q145 163 166 434q3 40 3 78q0 213 -101 350q-127 173 -381 173q-249 0 -411 -184q-148 -168 -169 -429z" />
<glyph unicode="P" horiz-adv-x="1274" d="M203 0l115 1456h341q412 0 549 -164q74 -88 74 -228q0 -21 -2 -44q-17 -216 -208 -330q-171 -103 -429 -103h-222l-46 -587h-172zM433 736h261q268 0 364 155q32 53 38 133q1 16 2 31q0 61 -22 107q-27 56 -81 88q-96 58 -304 58h-213z" />
<glyph unicode="Q" horiz-adv-x="1664" d="M178 747q24 327 235 531q213 205 541 205q324 0 500 -207q150 -176 150 -453q0 -41 -3 -85q-21 -276 -168 -474q-157 -212 -409 -262q112 -46 401 -46q73 0 171 16l-9 -154q-86 -10 -197.5 -10t-205.5 14t-159 38t-110 55.5t-88 66.5q-322 0 -499 208q-154 181 -154 465 q0 45 4 92zM354 722q-2 -33 -2 -64q0 -88 18 -168q25 -109 85 -190q130 -175 382 -175q254 0 409 175q144 161 167 434q3 40 3 78q0 211 -100 349q-126 173 -381 173q-251 0 -411 -184q-150 -170 -170 -428z" />
<glyph unicode="R" horiz-adv-x="1377" d="M205 0l115 1456h356q173 0 256.5 -13t147.5 -36.5t112 -65.5q93 -82 93 -229q0 -18 -1 -38q-18 -208 -208 -309q-60 -32 -131 -50q60 -20 96.5 -59t63.5 -100.5t51.5 -146t60.5 -195.5l70 -214h-188l-120 419q-41 140 -93 185q-57 48 -188 48h-270l-51 -652h-172z M440 799h266q253 0 351 132q37 50 43 126q1 15 1 30q-1 57 -19 95q-24 48 -70 76q-84 50 -255 50h-277z" />
<glyph unicode="S" horiz-adv-x="1244" d="M150 161l87 110q110 -146 364 -146q251 0 343 137q30 44 35 106q1 9 1 18q0 52 -27 92q-31 46 -85 82t-124.5 64.5t-144 58.5t-143.5 64.5t-123 82.5q-106 95 -106 234q0 15 1 31q13 182 186 289q158 99 369 99q208 0 329 -79q45 -30 74 -75l-92 -112q-96 117 -322 117 q-224 0 -322 -124q-34 -43 -39 -106q-1 -9 0 -17q1 -53 27 -93q32 -46 85.5 -82t124 -66t144 -61t143 -67t122.5 -85q107 -99 108 -238q0 -15 -2 -31q-17 -200 -203 -300q-161 -87 -389 -87q-222 0 -353 108q-42 34 -68 76z" />
<glyph unicode="T" horiz-adv-x="1174" d="M135 1308l12 148h1113l-12 -148h-472l-103 -1308h-172l103 1308h-469z" />
<glyph unicode="U" horiz-adv-x="1532" d="M234 541l72 915h172l-72 -910q-2 -30 -2 -58q0 -162 78 -254q92 -108 291 -109q185 0 301 111q118 111 134 303l72 917h172l-72 -905q-37 -419 -370 -535q-112 -39 -256 -39q-523 0 -523 484q0 38 3 80z" />
<glyph unicode="V" horiz-adv-x="1336" d="M124 1456h192l333 -1149l34 -141l60 142l517 1148h179l-680 -1456h-189z" />
<glyph unicode="W" horiz-adv-x="2103" d="M136 1456h186l223 -1107l25 -160l56 145l456 1122h181l272 -1111l33 -155l48 142l399 1124h180l-538 -1456h-212l-249 1026l-45 221l-494 -1247h-213z" />
<glyph unicode="X" horiz-adv-x="1304" d="M11 0l595 741l-444 715h216l351 -602l465 602h196l-568 -714l463 -742h-213l-376 630l-481 -630h-204z" />
<glyph unicode="Y" horiz-adv-x="1266" d="M125 1456h191l374 -729l492 729h191l-612 -871l-46 -585h-172l46 582z" />
<glyph unicode="Z" horiz-adv-x="1222" d="M58 0l7 92l960 1216h-832l12 148h1064l-7 -88l-964 -1220h860l-12 -148h-1088z" />
<glyph unicode="[" horiz-adv-x="628" d="M171 -259l135 1710h356l-10 -122h-193l-115 -1466h194l-10 -122h-357z" />
<glyph unicode="\" horiz-adv-x="706" d="M44 1451h168l561 -1570h-166z" />
<glyph unicode="]" horiz-adv-x="628" d="M67 -259l10 122h191l115 1466h-190v122h364l-135 -1710h-355z" />
<glyph unicode="^" horiz-adv-x="1457" d="M227 550l550 882h101l420 -882h-155l-294 625l-36 85l-46 -84l-384 -626h-156z" />
<glyph unicode="_" horiz-adv-x="998" d="M-25 -273l9 128h1002l-9 -128h-1002z" />
<glyph unicode="`" horiz-adv-x="593" d="M118 1492h214l222 -320h-129z" />
<glyph unicode="a" horiz-adv-x="1244" d="M162 268q-35 102 -35 205q0 122 49 245q80 200 268 288q97 45 221 45q228 0 347 -166l18 141h163l-24 -253l-61 -773h-165l13 144q-91 -112 -256 -153q-57 -14 -130.5 -14t-141.5 22.5t-120 62t-88.5 92.5t-57.5 114zM290 422q13 -234 196 -296q52 -17 122.5 -17 t134.5 28.5t115 84.5q111 120 128 328q1 20 1 39q0 135 -74 225q-86 103 -246 103q-222 0 -325 -213q-53 -109 -53 -245q0 -18 1 -37z" />
<glyph unicode="b" horiz-adv-x="1239" d="M150 0l28 270l96 1222h165l-48 -611q137 170 380 170q224 0 331 -158q78 -117 79 -294q0 -36 -4 -74q-17 -234 -147 -386q-140 -162 -361 -162t-336 160l-15 -137h-168zM363 515q-3 -33 -3 -62q0 -224 147 -291q60 -27 150.5 -27t155 35.5t106.5 93.5t65 132 q22 74 28 152q2 21 2 41q0 55 -12 104q-16 67 -54 117q-82 107 -226 107q-155 0 -255 -121q-91 -109 -104 -281z" />
<glyph unicode="c" horiz-adv-x="1046" d="M131 503q19 234 164 387q154 161 390 161q121 0 209 -38t133 -105l-83 -107q-83 116 -255 116q-160 0 -268 -119q-101 -113 -116 -290q-2 -28 -2 -55q0 -138 65 -229q81 -115 252.5 -115t315.5 116l35 -138q-148 -110 -371 -110q-243 0 -370 155q-101 124 -101 314 q0 28 2 57z" />
<glyph unicode="d" horiz-adv-x="1240" d="M133 506q17 228 148 380q142 165 367.5 165t332.5 -163l47 604h165l-97 -1236q-11 -161 -14 -256h-167l7 147q-72 -92 -160.5 -131t-207 -39t-203 41.5t-135.5 113.5q-86 121 -86 304q0 34 3 70zM306 507q-2 -32 -2 -61q0 -223 142 -304q57 -33 141.5 -33t148.5 31.5 t110 89.5q93 115 109 318q2 22 2 44q0 138 -68 224q-80 101 -225 101q-161 0 -258 -122q-87 -110 -100 -288z" />
<glyph unicode="e" horiz-adv-x="1173" d="M155 510q19 231 163 381q154 160 385 160q228 0 337 -145q85 -114 85 -297q0 -44 -5 -91q-2 -14 -4 -26h-787l-1 -45q0 -153 80 -244q82 -94 237 -94q205 0 363 143l40 -137q-171 -138 -424 -138q-238 0 -364 149q-107 127 -107 325q0 29 2 59zM345 609h609v14 q0 209 -148 273q-50 21 -117.5 21t-125.5 -24.5t-101 -66.5q-87 -84 -117 -217z" />
<glyph unicode="f" horiz-adv-x="702" d="M118 919l7 107h201l11 112q18 179 86 269q81 107 241 107q50 0 83 -8.5t51 -12.5l-8 -129q-36 15 -98 15t-94.5 -14t-51.5 -41q-35 -51 -43 -162l-12 -136h247l-7 -107h-248l-72 -919h-165l72 919h-200z" />
<glyph unicode="g" horiz-adv-x="1241" d="M131 511q19 234 150 379q144 161 367.5 161t332.5 -166q14 120 18 141h165q-20 -163 -26 -253l-50 -626q-11 -155 -47.5 -243t-77.5 -143t-103 -95q-134 -88 -343 -88q-206 0 -362 82l31 153q145 -95 330 -95q373 0 400 331l10 127q-134 -176 -366 -176q-218 0 -334 141 q-97 119 -97 308q0 30 2 62zM305 515q-2 -31 -2 -60q0 -141 53 -217q72 -103 244 -103q169 0 262 129q79 110 93 284q2 21 2 41q0 55 -13 104q-16 67 -54 117q-83 107 -225 107q-155 0 -255 -121q-90 -108 -105 -281z" />
<glyph unicode="h" horiz-adv-x="1217" d="M169 0l117 1492h165l-47 -602q133 161 358 161q204 0 289 -132q55 -86 55 -223q0 -29 -2 -60l-50 -636h-165l49 626q2 25 2 47q0 171 -114 223q-48 21 -120 21t-129.5 -26.5t-98.5 -72.5q-88 -95 -98 -233l-46 -585h-165z" />
<glyph unicode="i" horiz-adv-x="503" d="M167 0l81 1026h165l-81 -1026h-165zM278 1307l12 155h153l-12 -155h-153z" />
<glyph unicode="j" horiz-adv-x="503" d="M-134 -416l10 143q54 -10 83 -10q97 0 151 75.5t67 238.5l78 995h165l-72 -920q-29 -535 -361 -535q-58 0 -121 13zM277 1307l12 155h153l-12 -155h-153z" />
<glyph unicode="k" horiz-adv-x="1082" d="M178 0l117 1492h165l-71 -905l501 439h225l-568 -484q130 -135 262.5 -271t262.5 -271h-219l-471 501l-39 -501h-165z" />
<glyph unicode="l" horiz-adv-x="503" d="M168 0l117 1492h165l-117 -1492h-165z" />
<glyph unicode="m" horiz-adv-x="1901" d="M169 0l60 761q11 150 15 265h167l-7 -138q128 163 344 163q176 0 268 -119q29 -37 45 -83q127 202 388 202q200 0 282 -129q54 -85 54 -224q0 -30 -2 -62l-50 -636h-165l44 558q4 51 4 93q0 89 -19 135q-28 66 -75.5 98.5t-123.5 32.5t-130.5 -27.5t-94.5 -73.5 q-83 -95 -93 -229l-46 -587h-165l50 635q2 22 2 42q0 160 -119 217q-46 23 -114 23q-130 0 -216 -98q-82 -92 -92 -232l-46 -587h-165z" />
<glyph unicode="n" horiz-adv-x="1217" d="M168 0l61 779q4 46 6.5 90.5t4 82t3.5 74.5h167l-6 -142q130 167 356 167q305 0 336 -299q4 -46 4 -96.5t-4 -105.5l-43 -550h-165l42 531q5 63 5 115q0 110 -23 166q-42 105 -193 105q-133 0 -239 -99q-89 -84 -96 -166l-51 -652h-165z" />
<glyph unicode="o" horiz-adv-x="1238" d="M130 511q17 231 168 381q158 159 404 159q129 0 223.5 -42t153.5 -115q104 -128 104 -319q0 -30 -3 -62q-19 -228 -166 -377q-157 -159 -400 -159q-247 0 -378 156q-109 128 -109 319q0 29 3 59zM303 509q-2 -26 -3 -50q0 -133 70 -229q87 -121 258 -121q167 0 270 121 q94 109 108 282q2 23 2 46q0 56 -11 109q-15 74 -53 129q-84 121 -256 121q-167 0 -274 -123q-98 -116 -111 -285z" />
<glyph unicode="p" horiz-adv-x="1239" d="M125 -427l93 1185q8 84 13 268h167l-6 -146q141 171 358 171q231 0 344 -155q89 -123 89 -302q0 -33 -3 -67q-17 -229 -148 -383q-141 -167 -361.5 -167t-337.5 158l-44 -562h-164zM362 494q-2 -25 -2 -48q0 -56 10 -106q16 -70 52 -122q78 -109 230 -109q160 0 254 125 q83 110 98 287q2 32 2 62q0 221 -138 301q-58 33 -148 33t-155.5 -35t-108.5 -93.5t-65.5 -135t-28.5 -159.5z" />
<glyph unicode="q" horiz-adv-x="1240" d="M133 506q17 228 149 381q142 164 367.5 164t334.5 -153l15 128h167q-15 -97 -24 -213l-98 -1239h-165l46 574q-142 -171 -382 -171q-215 0 -325 153q-88 122 -88 306q0 34 3 70zM306 507q-2 -31 -2 -60q0 -224 145 -306q57 -32 147 -32t156.5 37.5t110 99t65 139 t28.5 159.5q1 23 1 46q0 55 -11 104q-16 69 -52 118q-78 105 -229 105q-161 0 -257 -121q-89 -110 -102 -289z" />
<glyph unicode="r" horiz-adv-x="737" d="M167 0l61 779q5 63 8 126t6 121h165l-6 -155q48 85 124 132t149 47t122 -12l-11 -155q-44 24 -108.5 24t-116 -23.5t-90.5 -67.5q-81 -93 -93 -248l-45 -568h-165z" />
<glyph unicode="s" horiz-adv-x="1007" d="M128 94l55 135q90 -120 302 -120q179 0 246 93q21 30 25 73q1 6 1 12q0 35 -17 59q-20 28 -57.5 49t-90 36.5t-120 37.5t-126 48.5t-97.5 61.5q-73 66 -73 169q0 11 1 23q11 135 135 211q111 69 239 69q253 0 356 -87l-51 -117q-96 70 -282 70q-146 0 -204 -83 q-19 -27 -21.5 -61t12.5 -59t43 -44q43 -29 114 -50.5t115.5 -34.5t88 -30.5t82.5 -41t68 -55.5q57 -62 57 -142q0 -8 -1 -18q-7 -92 -47.5 -149.5t-102.5 -95.5q-124 -76 -297 -76q-178 0 -288 62q-39 22 -65 55z" />
<glyph unicode="t" horiz-adv-x="729" d="M112 919l8 107h203l27 272l164 47l-26 -319h256l-8 -107h-256l-48 -613q-3 -40 -4 -69q0 -41 7 -61q11 -34 33.5 -52.5t71.5 -18.5t141 32l-10 -123q-68 -37 -162 -37t-142.5 28.5t-72.5 76.5q-29 60 -29 165q0 38 4 82l46 590h-203z" />
<glyph unicode="u" horiz-adv-x="1217" d="M188 399l49 627h165l-49 -627q-2 -25 -2 -48q0 -109 46 -169q56 -74 189 -73q138 0 229 97q87 93 97 230l46 590h165l-61 -780q-11 -150 -11 -233v-13h-170l7 135q-128 -158 -350 -158q-269 0 -334 224q-18 65 -18 141q0 28 2 57z" />
<glyph unicode="v" horiz-adv-x="1063" d="M95 1026h182l227 -690q25 -85 44 -173q13 36 25.5 66.5t23.5 59.5t21 47l330 690h177l-514 -1026h-168z" />
<glyph unicode="w" horiz-adv-x="1695" d="M106 1026h176l191 -742q3 -12 6 -28.5t6.5 -33.5t8.5 -36q7 16 13.5 31.5t12.5 31t12 27.5l324 750h166l190 -740q3 -12 6 -28.5t7 -33t8 -35.5q9 18 15 35q9 20 27 63l298 739h169l-449 -1026h-160l-215 831l-366 -831h-162z" />
<glyph unicode="x" horiz-adv-x="1043" d="M20 0l440 514l-340 512h203l251 -412l326 412h179l-418 -508l350 -518h-201l-266 418l-334 -418h-190z" />
<glyph unicode="y" horiz-adv-x="1069" d="M84 -314q216 55 298 196q23 39 39 75l21 49l-345 1020h181l265 -855l408 855h175l-540 -1098q-104 -215 -285 -310q-62 -32 -134 -45z" />
<glyph unicode="z" horiz-adv-x="958" d="M58 0l7 89l663 802h-574l11 135h797l-7 -87l-661 -805h613l-9 -134h-840z" />
<glyph unicode="{" horiz-adv-x="627" d="M128 534l9 122q162 15 180 234q3 63 8 126.5t9.5 131.5t26 125t62.5 97q85 81 257 81l-10 -126q-82 -2 -111 -30q-51 -47 -59 -138l-24 -289q-7 -102 -63 -184q-41 -59 -98 -89q128 -63 116 -270q-4 -49 -10 -108t-10.5 -119.5t0 -107t20.5 -74.5q29 -49 125 -49 l-10 -126q-233 10 -288 148q-20 50 -14 122l22 263q8 123 -6 165q-29 84 -132 95z" />
<glyph unicode="|" horiz-adv-x="500" d="M129 -491l160 2036h157l-160 -2036h-157z" />
<glyph unicode="}" horiz-adv-x="627" d="M46 -259l10 126q96 0 132 49q38 51 50 191q4 51 7.5 110t7 100.5t12 80.5t26.5 76q40 85 120 121q-85 48 -113 169q-10 45 -5 104l21 289q11 133 -76 159q-28 8 -67 9l10 126q252 0 291 -178q13 -57 6.5 -125t-11.5 -131.5t-10.5 -120t0.5 -98t23 -71.5q34 -63 119 -71 l-11 -122q-145 -15 -168 -170q-6 -44 -10 -90l-20 -263q-18 -256 -344 -270z" />
<glyph unicode="~" horiz-adv-x="1458" d="M224 440q31 109 114 184q88 81 196 81q51 0 92.5 -12t84 -29.5t84 -38.5t79.5 -39q90 -41 124.5 -41t64 15t53.5 40q51 52 72 123l122 -39q-61 -193 -211 -254q-51 -20 -95.5 -20t-81 12t-76 30t-80.5 38.5t-81 38.5q-93 42 -139 42t-78 -16t-58 -42q-54 -54 -75 -128z " />
<glyph unicode="&#xa1;" horiz-adv-x="737" d="M241 -384l125 1078h115l-45 -1078h-195zM330 884l16 206h214l-16 -206h-214z" />
<glyph unicode="&#xa2;" horiz-adv-x="1189" d="M210 503q17 225 152 375q145 160 367 172l29 211h130l-31 -217q172 -26 249 -136l-84 -107q-61 86 -183 110l-113 -802q154 7 288 116l35 -138q-139 -103 -342 -109l-32 -233h-129l33 240q-196 29 -293 177q-93 140 -76 341zM383 511q-6 -74 4 -137.5t36 -113.5 q55 -107 176 -138l110 790q-140 -22 -227 -136q-87 -112 -99 -265z" />
<glyph unicode="&#xa3;" horiz-adv-x="1189" d="M115 0l10 138q92 53 128 95q68 81 79 207l19 250h-181l9 142h182q9 184 36.5 275t62 149.5t87.5 101.5q113 90 300 90q210 0 322 -91l-62 -120q-106 70 -268 70q-215 0 -276 -213q-19 -66 -25 -147l-7 -115h330l-9 -142h-330q-17 -222 -35 -310q-36 -185 -106 -239h709 l-9 -141h-966z" />
<glyph unicode="&#xa4;" horiz-adv-x="1238" d="M245 542q-31 171 59 323q55 94 147 141l-129 279l41 16l129 -278q67 28 143.5 28t136.5 -17l123 267l41 -16l-124 -267q101 -48 144 -141q66 -140 16 -312q-45 -153 -166 -229l129 -280l-36 -16l-127 276q-92 -42 -173 -42t-126 13l-116 -247l-36 16l113 245 q-157 62 -189 241zM333 660q-11 -133 54 -220q70 -95 205 -95q132 0 216 95q77 87 88 221q5 63 -7.5 121t-43.5 102q-67 95 -207 95q-132 0 -216 -97q-78 -89 -89 -222z" />
<glyph unicode="&#xa5;" horiz-adv-x="1189" d="M131 283v140h408l12 151h-403l11 142h368l-390 704h205l251 -483l70 -141l421 624h186l-510 -704h364l-11 -142h-391l-12 -151h394l-11 -140h-391l-22 -283h-172l22 283h-399z" />
<glyph unicode="&#xa6;" horiz-adv-x="500" d="M129 -491l70 884h157l-70 -884h-157zM221 677l68 868h157l-68 -868h-157z" />
<glyph unicode="&#xa7;" horiz-adv-x="1097" d="M212 4l10 149q134 -64 262 -64q169 0 229 93q40 62 11 118q-21 41 -79.5 69t-106.5 49l-82 36q-227 100 -214 275q10 150 208 246q-73 47 -97 88q-43 73 -37 148t40 127t89 86.5t125.5 51.5t157 17t218.5 -41l-10 -148q-109 52 -222 52q-152 0 -204 -73q-38 -54 -15 -117 q19 -50 95 -94q40 -23 99.5 -49.5t112 -54t90.5 -61.5q123 -110 55 -249q-48 -99 -185 -178q76 -39 103 -77q49 -70 43 -146.5t-44 -132.5t-97 -94q-119 -78 -276 -78t-279 52zM420 741q-8 -93 124 -154q40 -19 90 -40q147 88 156 176q5 82 -96 131q-31 15 -67 31l-22 9 q-24 9 -39 18q-139 -72 -146 -171z" />
<glyph unicode="&#xa8;" horiz-adv-x="743" d="M220 1246l13 163h164l-14 -163h-163zM552 1246l13 163h164l-13 -163h-164z" />
<glyph unicode="&#xa9;" horiz-adv-x="1829" d="M160 726q24 309 280 534q162 141 370 196q105 27 216 27t212 -27.5t187 -77.5t154.5 -119.5t114.5 -154.5q96 -178 80 -379q-16 -203 -140 -380q-186 -265 -508 -349q-104 -28 -215 -28t-213 27.5t-188 77t-154.5 119t-114.5 153.5q-97 177 -81 381zM289 749 q-9 -113 8 -195.5t55.5 -154t95.5 -129.5t130 -99q152 -86 319 -86t294.5 49.5t224.5 135.5q209 184 231 454q21 271 -161 457q-114 117 -287 163q-86 22 -205.5 22t-247.5 -49t-226.5 -135t-160 -203t-70.5 -230zM517 729q18 213 161 343q149 136 368 136q172 0 286 -103 l-40 -120q-103 95 -263 95q-149 0 -250 -101q-98 -98 -108 -246q-12 -152 71 -250q88 -103 244.5 -103t259.5 80l30 -121q-136 -90 -316 -90q-208 0 -334 140q-123 136 -109 340z" />
<glyph unicode="&#xaa;" horiz-adv-x="745" d="M143 975q9 128 160 190q83 34 178.5 36.5t149.5 9.5q16 128 -65 151q-28 7 -70 7q-144 0 -218 -94l-61 75q86 127 293 127q129 0 198 -59q71 -62 58 -183l-27 -321q-3 -16 -3 -74v-54h-131v74q-83 -92 -228 -92q-109 0 -175 56q-67 58 -59 151zM278.5 978 q-4.5 -57 32 -82t92 -25t94 17.5t66.5 47.5q54 58 65 149l-2 25q-35 -7 -74 -10.5t-76.5 -7.5t-72 -10.5t-61.5 -19.5q-59 -27 -63.5 -84z" />
<glyph unicode="&#xab;" horiz-adv-x="1156" d="M289 541l304 373h160l-294 -373l227 -370h-157zM659 541l303 373h159l-292 -373l227 -370h-157z" />
<glyph unicode="&#xac;" horiz-adv-x="1458" d="M252 659l11 139h1048l-44 -560h-150l33 421h-898z" />
<glyph unicode="&#xad;" horiz-adv-x="728" d="M118 489l10 137h571l-10 -137h-571z" />
<glyph unicode="&#xae;" horiz-adv-x="1829" d="M160 726q24 309 280 534q162 141 370 196q105 27 216 27t212 -27.5t187 -77.5t154.5 -119.5t114.5 -154.5q96 -178 80 -379q-16 -203 -140 -380q-186 -265 -508 -349q-104 -28 -215 -28t-213 27.5t-188 77t-154.5 119t-114.5 153.5q-97 177 -81 381zM287 727 q-21 -272 161 -457t472 -185q96 0 185 22.5t167.5 63.5t144.5 99t115 129q101 149 115 325q21 271 -161 457q-114 117 -287 163q-86 22 -205.5 22t-247.5 -49t-226 -135q-211 -185 -233 -455zM619 273l72 919h273q219 0 319.5 -66.5t91.5 -190.5q-13 -154 -163 -221 q-53 -24 -122 -33q75 -75 207 -324l45 -84h-168l-107 212q-67 135 -133 179h-137l-30 -391h-148zM805 783h125q146 0 194 18.5t69.5 45.5t25 75t-9.5 78t-45 46q-53 26 -220 26h-118z" />
<glyph unicode="&#xaf;" horiz-adv-x="850" d="M106 1380l10 130h856l-10 -130h-856z" />
<glyph unicode="&#xb0;" horiz-adv-x="844" d="M186 1150q10 122 110 208t232 86q130 0 218 -86q88 -87 78 -208q-10 -123 -112 -208q-103 -87 -230 -87q-65 0 -121 23.5t-97 63.5q-88 87 -78 208zM311 1151q-6 -77 47 -128q53 -52 133 -52t141 52q61 51 67 128q6 75 -47 127q-53 50 -133 50q-79 0 -141 -50 q-61 -51 -67 -127z" />
<glyph unicode="&#xb1;" horiz-adv-x="1458" d="M200 0l11 138h1049l-11 -138h-1049zM235 595l11 138h457l29 374h149l-29 -374h451l-11 -138h-447l-29 -372h-151l29 372h-459z" />
<glyph unicode="&#xb2;" d="M331 604l9 111l102 87q161 139 223 204q196 203 101 286q-34 31 -100 31q-123 0 -196 -131l-79 78q42 81 118 125.5t152 44.5t122.5 -16t80.5 -46q70 -62 62 -165q-13 -164 -251 -365q-72 -60 -153 -126h364l-9 -118h-546z" />
<glyph unicode="&#xb3;" d="M289 683l68 96q77 -78 174 -78q119 0 168 79q16 25 18.5 59.5t-10.5 60t-39 41.5q-50 30 -155 30l-15 -1h-41l9 119h49q199 0 206 121q9 83 -76 106q-25 6 -56 6q-95 0 -198 -78l-50 96q49 45 118.5 73t131.5 28t110 -15t83 -44q79 -64 71 -169q-11 -124 -122 -181 q125 -58 113 -198q-10 -111 -104 -182q-89 -66 -215 -66q-149 0 -238 97z" />
<glyph unicode="&#xb4;" horiz-adv-x="607" d="M267 1172l251 320h212l-333 -320h-130z" />
<glyph unicode="&#xb6;" horiz-adv-x="1214" d="M196 1130q24 321 541 321h386l-9 -124h-87l-117 -1475h-129l117 1475h-208l-117 -1475h-143l74 934q-140 2 -228 96q-92 98 -80 248z" />
<glyph unicode="&#xb7;" horiz-adv-x="444" d="M116 513l17 210h217l-17 -210h-217z" />
<glyph unicode="&#xb8;" horiz-adv-x="529" d="M23 -374l15 85q94 -24 153 -24q111 0 115 72q4 41 -25.5 57t-55 16t-36.5 -1t-23 -2l-32 -2l48 190h97l-27 -107q143 -3 186 -82q15 -27 11.5 -67t-24 -69.5t-54.5 -49.5q-67 -38 -175 -38q-63 0 -173 22z" />
<glyph unicode="&#xb9;" d="M318 604l9 119h122l28 346q6 96 9 131l5 71q-71 -36 -157 -68l11 130q79 24 175 79l106 15l-56 -707h122l-9 -116h-365z" />
<glyph unicode="&#xba;" horiz-adv-x="824" d="M142 1124q12 153 114 250q108 102 276 102q88 0 152.5 -27.5t106.5 -75.5q84 -97 72 -252q-13 -153 -113 -250q-107 -104 -273 -104q-173 0 -263 103q-85 97 -72 254zM282 1122q-4 -50 6 -95.5t35 -78.5q54 -73 162 -73q102 0 169 73q63 67 71 171q8 108 -43 177 q-55 73 -161 73q-103 0 -169 -73q-62 -69 -70 -174z" />
<glyph unicode="&#xbb;" horiz-adv-x="1156" d="M178 171l294 371l-229 372h158l241 -372l-304 -371h-160zM576 171l290 371l-225 372h156l241 -372l-305 -371h-157z" />
<glyph unicode="&#xbc;" horiz-adv-x="1986" d="M318 604l9 119h122l28 346q6 96 9 131l5 71q-71 -36 -157 -68l11 130q79 24 175 79l106 15l-56 -707h122l-9 -116h-365zM437 0l1018 1436h149l-1016 -1436h-151zM1082 225l7 91l407 518h134l-40 -502h109l2 -107h-121l-15 -188h-120l15 188h-378zM1229 332h237l15 180 l15 156z" />
<glyph unicode="&#xbd;" horiz-adv-x="1858" d="M318 604l9 119h122l28 346q6 96 9 131l5 71q-71 -36 -157 -68l11 130q79 24 175 79l106 15l-56 -707h122l-9 -116h-365zM379 0l1018 1436h149l-1016 -1436h-151zM1062 -25l9 111l102 87q161 139 223 204q196 203 101 286q-34 31 -100 31q-123 0 -196 -131l-79 78 q42 81 118 125.5t152 44.5t122.5 -16t80.5 -46q70 -62 62 -165q-13 -164 -251 -365q-72 -60 -153 -126h364l-9 -118h-546z" />
<glyph unicode="&#xbe;" horiz-adv-x="1921" d="M234 683l68 96q77 -78 174 -78q119 0 168 79q16 25 18.5 59.5t-10.5 60t-39 41.5q-50 30 -155 30l-15 -1h-41l9 119h49q199 0 206 121q9 83 -76 106q-25 6 -56 6q-95 0 -198 -78l-50 96q49 45 118.5 73t131.5 28t110 -15t83 -44q79 -64 71 -169q-11 -124 -122 -181 q125 -58 113 -198q-10 -111 -104 -182q-89 -66 -215 -66q-149 0 -238 97zM423 0l1018 1436h149l-1016 -1436h-151zM1051 229l7 91l407 518h134l-40 -502h109l2 -107h-121l-15 -188h-120l15 188h-378zM1198 336h237l15 180l15 156z" />
<glyph unicode="&#xbf;" horiz-adv-x="1032" d="M141 -63q11 143 224 335q135 121 176 179.5t43 93.5q4 55 -4 157h164v-58q0 -74 -3.5 -119.5t-36.5 -96.5t-79 -97t-99.5 -89.5t-99.5 -89.5q-108 -108 -116 -207q-7 -106 76 -163q72 -48 203 -48t257 69l-11 -146q-139 -65 -258.5 -65t-197.5 21.5t-133 64.5 q-118 93 -105 259zM567 871l17 210h217l-17 -210h-217z" />
<glyph unicode="&#xc0;" horiz-adv-x="1425" d="M13 0l719 1456h185l490 -1456h-191l-132 397h-698l-187 -397h-186zM453 545h584l-186 605q-16 42 -42 148q-12 -32 -23 -59q-26 -61 -41 -90zM633 1922h214l222 -320h-129z" />
<glyph unicode="&#xc1;" horiz-adv-x="1425" d="M13 0l719 1456h185l490 -1456h-191l-132 397h-698l-187 -397h-186zM453 545h584l-186 605q-16 42 -42 148q-12 -32 -23 -59q-26 -61 -41 -90zM619 1602l251 320h212l-333 -320h-130z" />
<glyph unicode="&#xc2;" horiz-adv-x="1425" d="M13 0l719 1456h185l490 -1456h-191l-132 397h-698l-187 -397h-186zM453 545h584l-186 605q-16 42 -42 148q-12 -32 -23 -59q-26 -61 -41 -90zM531 1600l253 324h157l204 -324h-132l-161 216l-195 -216h-126z" />
<glyph unicode="&#xc3;" horiz-adv-x="1425" d="M13 0l719 1456h185l490 -1456h-191l-132 397h-698l-187 -397h-186zM453 545h584l-186 605q-16 42 -42 148q-12 -32 -23 -59q-26 -61 -41 -90zM519 1633q16 93 73 152q57 58 143 58q50 0 104 -23q102 -45 140 -45q76 0 94 90h108q-26 -149 -133 -199q-36 -16 -72.5 -16 t-68 10.5t-63.5 23.5q-84 34 -122 34q-81 0 -98 -85h-105z" />
<glyph unicode="&#xc4;" horiz-adv-x="1425" d="M13 0l719 1456h185l490 -1456h-191l-132 397h-698l-187 -397h-186zM453 545h584l-186 605q-16 42 -42 148q-12 -32 -23 -59q-26 -61 -41 -90zM596 1676l13 163h164l-14 -163h-163zM928 1676l13 163h164l-13 -163h-164z" />
<glyph unicode="&#xc5;" horiz-adv-x="1425" d="M13 0l719 1456h185l490 -1456h-191l-132 397h-698l-187 -397h-186zM453 545h584l-186 605q-16 42 -42 148q-12 -32 -23 -59q-26 -61 -41 -90zM641 1770q3 40 22.5 75t50.5 61q65 54 152 54q88 0 146 -56q55 -53 49 -134q-6 -78 -73 -135q-65 -56 -151 -56 q-89 0 -145.5 54.5t-50.5 136.5zM740.5 1769q-3.5 -45 23.5 -74.5t63.5 -29.5t57 8.5t37.5 22.5t27.5 33.5t12 41t-5.5 40.5t-21 33q-31 31 -65 31t-54.5 -8.5t-36.5 -22.5q-35 -30 -38.5 -75z" />
<glyph unicode="&#xc6;" horiz-adv-x="2028" d="M5 0l946 1456h1039l-9 -148h-719v-488h637l-9 -148h-621v-524h641l-9 -148h-797v398h-646l-257 -398h-196zM549 546h548v762h-50z" />
<glyph unicode="&#xc7;" horiz-adv-x="1399" d="M164 713q25 319 230 539q135 146 328 202q98 29 222 29q255 0 415 -154l-73 -110q-144 115 -348 115q-263 0 -425 -195q-146 -176 -166 -427q-19 -254 93 -412q126 -175 382.5 -175t431.5 143l47 -141q-198 -150 -518 -150q-318 0 -486 217q-158 203 -133 519zM462 -374 l15 85q94 -24 153 -24q111 0 115 72q4 41 -25.5 57t-55 16t-36.5 -1t-23 -2l-32 -2l48 190h97l-27 -107q143 -3 186 -82q15 -27 11.5 -67t-24 -69.5t-54.5 -49.5q-67 -38 -175 -38q-63 0 -173 22z" />
<glyph unicode="&#xc8;" horiz-adv-x="1218" d="M205 0l115 1456h867l-12 -148h-695l-38 -488h657l-12 -148h-657l-41 -524h725l-12 -148h-897zM529 1922h214l222 -320h-129z" />
<glyph unicode="&#xc9;" horiz-adv-x="1218" d="M205 0l115 1456h867l-12 -148h-695l-38 -488h657l-12 -148h-657l-41 -524h725l-12 -148h-897zM516 1602l251 320h212l-333 -320h-130z" />
<glyph unicode="&#xca;" horiz-adv-x="1218" d="M205 0l115 1456h867l-12 -148h-695l-38 -488h657l-12 -148h-657l-41 -524h725l-12 -148h-897zM428 1600l253 324h157l204 -324h-132l-161 216l-195 -216h-126z" />
<glyph unicode="&#xcb;" horiz-adv-x="1218" d="M205 0l115 1456h867l-12 -148h-695l-38 -488h657l-12 -148h-657l-41 -524h725l-12 -148h-897zM493 1676l13 163h164l-14 -163h-163zM825 1676l13 163h164l-13 -163h-164z" />
<glyph unicode="&#xcc;" horiz-adv-x="591" d="M210 0l115 1456h172l-115 -1456h-172zM216 1922h214l222 -320h-129z" />
<glyph unicode="&#xcd;" horiz-adv-x="591" d="M204 1602l251 320h212l-333 -320h-130zM210 0l115 1456h172l-115 -1456h-172z" />
<glyph unicode="&#xce;" horiz-adv-x="591" d="M116 1600l253 324h157l204 -324h-132l-161 216l-195 -216h-126zM210 0l115 1456h172l-115 -1456h-172z" />
<glyph unicode="&#xcf;" horiz-adv-x="591" d="M181 1676l13 163h164l-14 -163h-163zM210 0l115 1456h172l-115 -1456h-172zM513 1676l13 163h164l-13 -163h-164z" />
<glyph unicode="&#xd0;" horiz-adv-x="1546" d="M52 658l10 137h194l52 661h315q587 0 776 -290q109 -169 88 -442q-26 -334 -258 -528q-235 -196 -619 -196h-417l52 658h-193zM377 148h261q307 0 483 161q163 149 184 412q25 319 -147 458q-159 129 -526 129h-164l-40 -513h205l-10 -137h-206z" />
<glyph unicode="&#xd1;" horiz-adv-x="1594" d="M193 0l115 1456h206l659 -1114l68 -127l98 1241h171l-115 -1456h-208l-662 1113l-63 124l-97 -1237h-172zM604 1633q16 93 73 152q57 58 143 58q50 0 104 -23q102 -45 140 -45q76 0 94 90h108q-26 -149 -133 -199q-36 -16 -72.5 -16t-68 10.5t-63.5 23.5q-84 34 -122 34 q-81 0 -98 -85h-105z" />
<glyph unicode="&#xd2;" horiz-adv-x="1663" d="M172 729q24 333 233 541q215 213 549 213q324 0 500 -207q175 -204 148 -546q-14 -169 -73 -306.5t-159 -237.5q-211 -209 -543 -209q-331 0 -508 204q-175 202 -147 548zM355 722q-10 -123 15 -232.5t85 -190.5q129 -174 382 -174q255 0 411 175q145 163 166 434 q21 267 -98 428q-127 173 -381 173q-249 0 -411 -184q-148 -168 -169 -429zM752 1922h214l222 -320h-129z" />
<glyph unicode="&#xd3;" horiz-adv-x="1663" d="M172 729q24 333 233 541q215 213 549 213q324 0 500 -207q175 -204 148 -546q-14 -169 -73 -306.5t-159 -237.5q-211 -209 -543 -209q-331 0 -508 204q-175 202 -147 548zM355 722q-10 -123 15 -232.5t85 -190.5q129 -174 382 -174q255 0 411 175q145 163 166 434 q21 267 -98 428q-127 173 -381 173q-249 0 -411 -184q-148 -168 -169 -429zM738 1602l251 320h212l-333 -320h-130z" />
<glyph unicode="&#xd4;" horiz-adv-x="1663" d="M172 729q24 333 233 541q215 213 549 213q324 0 500 -207q175 -204 148 -546q-14 -169 -73 -306.5t-159 -237.5q-211 -209 -543 -209q-331 0 -508 204q-175 202 -147 548zM355 722q-10 -123 15 -232.5t85 -190.5q129 -174 382 -174q255 0 411 175q145 163 166 434 q21 267 -98 428q-127 173 -381 173q-249 0 -411 -184q-148 -168 -169 -429zM650 1600l253 324h157l204 -324h-132l-161 216l-195 -216h-126z" />
<glyph unicode="&#xd5;" horiz-adv-x="1663" d="M172 729q24 333 233 541q215 213 549 213q324 0 500 -207q175 -204 148 -546q-14 -169 -73 -306.5t-159 -237.5q-211 -209 -543 -209q-331 0 -508 204q-175 202 -147 548zM355 722q-10 -123 15 -232.5t85 -190.5q129 -174 382 -174q255 0 411 175q145 163 166 434 q21 267 -98 428q-127 173 -381 173q-249 0 -411 -184q-148 -168 -169 -429zM638 1633q16 93 73 152q57 58 143 58q50 0 104 -23q102 -45 140 -45q76 0 94 90h108q-26 -149 -133 -199q-36 -16 -72.5 -16t-68 10.5t-63.5 23.5q-84 34 -122 34q-81 0 -98 -85h-105z" />
<glyph unicode="&#xd6;" horiz-adv-x="1663" d="M172 729q24 333 233 541q215 213 549 213q324 0 500 -207q175 -204 148 -546q-14 -169 -73 -306.5t-159 -237.5q-211 -209 -543 -209q-331 0 -508 204q-175 202 -147 548zM355 722q-10 -123 15 -232.5t85 -190.5q129 -174 382 -174q255 0 411 175q145 163 166 434 q21 267 -98 428q-127 173 -381 173q-249 0 -411 -184q-148 -168 -169 -429zM715 1676l13 163h164l-14 -163h-163zM1047 1676l13 163h164l-13 -163h-164z" />
<glyph unicode="&#xd7;" horiz-adv-x="1458" d="M342 257l319 297l-272 297l111 103l273 -297l320 297l96 -104l-321 -296l274 -296l-112 -104l-273 296l-320 -296z" />
<glyph unicode="&#xd8;" horiz-adv-x="1663" d="M172 729q24 333 233 541q215 213 549 213q324 0 500 -207q175 -204 148 -546q-14 -169 -73 -306.5t-159 -237.5q-211 -209 -543 -209q-331 0 -508 204q-175 202 -147 548zM355 722q-10 -123 15 -232.5t85 -190.5q129 -174 382 -174q255 0 411 175q145 163 166 434 q21 267 -98 428q-127 173 -381 173q-249 0 -411 -184q-148 -168 -169 -429zM433 -117l768 1666h167l-772 -1666h-163z" />
<glyph unicode="&#xd9;" horiz-adv-x="1532" d="M234 541l72 915h172l-72 -910q-16 -204 76.5 -312.5t290.5 -108.5q185 0 301 111q118 111 134 303l72 917h172l-72 -905q-37 -419 -370 -535q-112 -39 -256 -39q-565 0 -520 564zM686 1922h214l222 -320h-129z" />
<glyph unicode="&#xda;" horiz-adv-x="1532" d="M234 541l72 915h172l-72 -910q-16 -204 76.5 -312.5t290.5 -108.5q185 0 301 111q118 111 134 303l72 917h172l-72 -905q-37 -419 -370 -535q-112 -39 -256 -39q-565 0 -520 564zM673 1602l251 320h212l-333 -320h-130z" />
<glyph unicode="&#xdb;" horiz-adv-x="1532" d="M234 541l72 915h172l-72 -910q-16 -204 76.5 -312.5t290.5 -108.5q185 0 301 111q118 111 134 303l72 917h172l-72 -905q-37 -419 -370 -535q-112 -39 -256 -39q-565 0 -520 564zM585 1600l253 324h157l204 -324h-132l-161 216l-195 -216h-126z" />
<glyph unicode="&#xdc;" horiz-adv-x="1532" d="M234 541l72 915h172l-72 -910q-16 -204 76.5 -312.5t290.5 -108.5q185 0 301 111q118 111 134 303l72 917h172l-72 -905q-37 -419 -370 -535q-112 -39 -256 -39q-565 0 -520 564zM650 1676l13 163h164l-14 -163h-163zM982 1676l13 163h164l-13 -163h-164z" />
<glyph unicode="&#xdd;" horiz-adv-x="1266" d="M125 1456h191l374 -729l492 729h191l-612 -871l-46 -585h-172l46 582zM540 1602l251 320h212l-333 -320h-130z" />
<glyph unicode="&#xde;" horiz-adv-x="1274" d="M203 0l115 1456h172l-12 -144h169q411 0 549 -164q86 -102 73 -272q-17 -216 -209 -330q-170 -103 -428 -103h-222l-35 -443h-172zM422 592h261q268 0 363 155q33 53 39.5 133.5t-20.5 137t-81 88.5q-96 58 -304 58h-213z" />
<glyph unicode="&#xdf;" horiz-adv-x="1257" d="M176 0l82 1071q14 201 138 319q126 121 327 121q187 0 292 -93q100 -90 90 -226q-9 -117 -129 -234q-81 -80 -193 -145q-7 -4 -8 -7q0 -3 42 -20t119 -55.5t138 -92.5q140 -123 126 -297q-14 -161 -138 -265q-121 -99 -272 -99q-195 0 -308 161l73 105q105 -134 242 -134 q133 0 191 122q19 40 24 103.5t-24.5 123.5t-80.5 109.5t-116 90.5t-128 79l-32 19l27 136q165 72 232 203q48 93 17 176q-41 111 -195 111q-134 0 -212 -102q-70 -92 -81 -242q-5 -65 -11.5 -149t-13.5 -178t-14 -192.5t-14.5 -192.5t-13.5 -178t-11 -148h-165z" />
<glyph unicode="&#xe0;" horiz-adv-x="1244" d="M162 268q-77 223 14 450q80 200 268 288q97 45 221 45q228 0 347 -166l18 141h163l-24 -253l-61 -773h-165l13 144q-91 -112 -256 -153q-57 -14 -130.5 -14t-141.5 22.5t-120 62t-88.5 92.5t-57.5 114zM290 422q13 -234 196 -296q52 -17 122.5 -17t134.5 28.5t115 84.5 q111 120 128 328q12 162 -73 264q-86 103 -246 103q-222 0 -325 -213q-60 -123 -52 -282zM508 1492h214l222 -320h-129z" />
<glyph unicode="&#xe1;" horiz-adv-x="1244" d="M162 268q-77 223 14 450q80 200 268 288q97 45 221 45q228 0 347 -166l18 141h163l-24 -253l-61 -773h-165l13 144q-91 -112 -256 -153q-57 -14 -130.5 -14t-141.5 22.5t-120 62t-88.5 92.5t-57.5 114zM290 422q13 -234 196 -296q52 -17 122.5 -17t134.5 28.5t115 84.5 q111 120 128 328q12 162 -73 264q-86 103 -246 103q-222 0 -325 -213q-60 -123 -52 -282zM495 1172l251 320h212l-333 -320h-130z" />
<glyph unicode="&#xe2;" horiz-adv-x="1244" d="M162 268q-77 223 14 450q80 200 268 288q97 45 221 45q228 0 347 -166l18 141h163l-24 -253l-61 -773h-165l13 144q-91 -112 -256 -153q-57 -14 -130.5 -14t-141.5 22.5t-120 62t-88.5 92.5t-57.5 114zM290 422q13 -234 196 -296q52 -17 122.5 -17t134.5 28.5t115 84.5 q111 120 128 328q12 162 -73 264q-86 103 -246 103q-222 0 -325 -213q-60 -123 -52 -282zM407 1170l253 324h157l204 -324h-132l-161 216l-195 -216h-126z" />
<glyph unicode="&#xe3;" horiz-adv-x="1244" d="M162 268q-77 223 14 450q80 200 268 288q97 45 221 45q228 0 347 -166l18 141h163l-24 -253l-61 -773h-165l13 144q-91 -112 -256 -153q-57 -14 -130.5 -14t-141.5 22.5t-120 62t-88.5 92.5t-57.5 114zM290 422q13 -234 196 -296q52 -17 122.5 -17t134.5 28.5t115 84.5 q111 120 128 328q12 162 -73 264q-86 103 -246 103q-222 0 -325 -213q-60 -123 -52 -282zM395 1203q16 93 73 152q57 58 143 58q50 0 104 -23q102 -45 140 -45q76 0 94 90h108q-26 -149 -133 -199q-36 -16 -72.5 -16t-68 10.5t-63.5 23.5q-84 34 -122 34q-81 0 -98 -85h-105 z" />
<glyph unicode="&#xe4;" horiz-adv-x="1244" d="M162 268q-77 223 14 450q80 200 268 288q97 45 221 45q228 0 347 -166l18 141h163l-24 -253l-61 -773h-165l13 144q-91 -112 -256 -153q-57 -14 -130.5 -14t-141.5 22.5t-120 62t-88.5 92.5t-57.5 114zM290 422q13 -234 196 -296q52 -17 122.5 -17t134.5 28.5t115 84.5 q111 120 128 328q12 162 -73 264q-86 103 -246 103q-222 0 -325 -213q-60 -123 -52 -282zM472 1246l13 163h164l-14 -163h-163zM804 1246l13 163h164l-13 -163h-164z" />
<glyph unicode="&#xe5;" horiz-adv-x="1244" d="M162 268q-77 223 14 450q80 200 268 288q97 45 221 45q228 0 347 -166l18 141h163l-24 -253l-61 -773h-165l13 144q-91 -112 -256 -153q-57 -14 -130.5 -14t-141.5 22.5t-120 62t-88.5 92.5t-57.5 114zM290 422q13 -234 196 -296q52 -17 122.5 -17t134.5 28.5t115 84.5 q111 120 128 328q12 162 -73 264q-86 103 -246 103q-222 0 -325 -213q-60 -123 -52 -282zM517 1340q3 40 22.5 75t50.5 61q65 54 152 54q88 0 146 -56q55 -53 49 -134q-6 -78 -73 -135q-65 -56 -151 -56q-89 0 -145.5 54.5t-50.5 136.5zM616.5 1339q-3.5 -45 23.5 -74.5 t63.5 -29.5t57 8.5t37.5 22.5t27.5 33.5t12 41t-5.5 40.5t-21 33q-31 31 -65 31t-54.5 -8.5t-36.5 -22.5q-35 -30 -38.5 -75z" />
<glyph unicode="&#xe6;" horiz-adv-x="1807" d="M104 282q10 133 124 219q151 112 434 111q80 -1 158 4v12q14 201 -101 266q-42 23 -106 23q-213 0 -314 -154l-83 93q121 197 417 197q180 -7 269 -111q30 -36 36.5 -59.5t7 -24.5t0.5 -2q126 193 368 197q234 0 342 -147q102 -136 83 -382l-4 -45h-755 q-31 -252 128 -337q55 -29 150.5 -29t187 47t154.5 132l81 -86q-153 -231 -450 -231q-187 0 -301 127q-36 41 -60 95q-73 -104 -185 -161.5t-246 -63.5q-159 0 -252 83q-95 84 -83 227zM273.5 296q-4.5 -55 11.5 -89.5t45 -56.5q57 -41 148.5 -41t152 30.5t98.5 81.5 q68 92 82 258l-146 -3q-186 -5 -252 -29t-100.5 -60t-39 -91zM992 616h581v10q-5 291 -250 291q-132 0 -225 -91q-85 -83 -106 -210z" />
<glyph unicode="&#xe7;" horiz-adv-x="1046" d="M131 503q19 234 164 387q154 161 390 161q121 0 209 -38t133 -105l-83 -107q-83 116 -255 116q-160 0 -268 -119q-101 -113 -116 -290q-15 -176 63 -284q81 -115 252.5 -115t315.5 116l35 -138q-148 -110 -371 -110q-243 0 -370 155q-116 142 -99 371zM407 -374l15 85 q94 -24 153 -24q111 0 115 72q4 41 -25.5 57t-55 16t-36.5 -1t-23 -2l-32 -2l48 190h97l-27 -107q143 -3 186 -82q15 -27 11.5 -67t-24 -69.5t-54.5 -49.5q-67 -38 -175 -38q-63 0 -173 22z" />
<glyph unicode="&#xe8;" horiz-adv-x="1173" d="M155 510q19 231 163 381q154 160 385 160q228 0 337 -145q105 -141 80 -388q-2 -14 -4 -26h-787l-1 -45q0 -153 80 -244q82 -94 237 -94q205 0 363 143l40 -137q-171 -138 -424 -138q-238 0 -364 149q-123 146 -105 384zM345 609h609v14q0 209 -148 273q-50 21 -117.5 21 t-125.5 -24.5t-101 -66.5q-87 -84 -117 -217zM473 1492h214l222 -320h-129z" />
<glyph unicode="&#xe9;" horiz-adv-x="1173" d="M155 510q19 231 163 381q154 160 385 160q228 0 337 -145q105 -141 80 -388q-2 -14 -4 -26h-787l-1 -45q0 -153 80 -244q82 -94 237 -94q205 0 363 143l40 -137q-171 -138 -424 -138q-238 0 -364 149q-123 146 -105 384zM345 609h609v14q0 209 -148 273q-50 21 -117.5 21 t-125.5 -24.5t-101 -66.5q-87 -84 -117 -217zM459 1172l251 320h212l-333 -320h-130z" />
<glyph unicode="&#xea;" horiz-adv-x="1173" d="M155 510q19 231 163 381q154 160 385 160q228 0 337 -145q105 -141 80 -388q-2 -14 -4 -26h-787l-1 -45q0 -153 80 -244q82 -94 237 -94q205 0 363 143l40 -137q-171 -138 -424 -138q-238 0 -364 149q-123 146 -105 384zM345 609h609v14q0 209 -148 273q-50 21 -117.5 21 t-125.5 -24.5t-101 -66.5q-87 -84 -117 -217zM371 1170l253 324h157l204 -324h-132l-161 216l-195 -216h-126z" />
<glyph unicode="&#xeb;" horiz-adv-x="1173" d="M155 510q19 231 163 381q154 160 385 160q228 0 337 -145q105 -141 80 -388q-2 -14 -4 -26h-787l-1 -45q0 -153 80 -244q82 -94 237 -94q205 0 363 143l40 -137q-171 -138 -424 -138q-238 0 -364 149q-123 146 -105 384zM345 609h609v14q0 209 -148 273q-50 21 -117.5 21 t-125.5 -24.5t-101 -66.5q-87 -84 -117 -217zM436 1246l13 163h164l-14 -163h-163zM768 1246l13 163h164l-13 -163h-164z" />
<glyph unicode="&#xec;" horiz-adv-x="503" d="M138 1492h214l222 -320h-129zM168 0l80 1026h165l-80 -1026h-165z" />
<glyph unicode="&#xed;" horiz-adv-x="503" d="M126 1172l251 320h212l-333 -320h-130zM168 0l80 1026h165l-80 -1026h-165z" />
<glyph unicode="&#xee;" horiz-adv-x="503" d="M38 1170l253 324h157l204 -324h-132l-161 216l-195 -216h-126zM168 0l80 1026h165l-80 -1026h-165z" />
<glyph unicode="&#xef;" horiz-adv-x="503" d="M103 1246l13 163h164l-14 -163h-163zM168 0l80 1026h165l-80 -1026h-165zM435 1246l13 163h164l-13 -163h-164z" />
<glyph unicode="&#xf0;" d="M123 446q16 201 149 324q136 127 343 127q263 0 360 -174v2q13 172 -13 301h-262l11 137h206q-71 150 -233 243l86 84q216 -87 314 -327h197l-11 -137h-145q35 -164 21 -343t-58 -308.5t-116 -218.5q-148 -179 -393 -179q-222 0 -349 135q-123 130 -107 334zM298 441 q-10 -140 67 -231q79 -92 217 -92q162 0 262 122q90 110 98 279q1 10 3 17q-26 98 -110.5 159.5t-212.5 61.5q-70 0 -130 -24t-101 -67q-80 -83 -93 -225z" />
<glyph unicode="&#xf1;" horiz-adv-x="1217" d="M168 0l61 779q4 46 6.5 90.5t4 82t3.5 74.5h167l-7 -142q130 167 357 167q305 0 336 -299q9 -92 0 -202l-43 -550h-165l42 531q16 198 -18 281q-42 105 -193 105q-133 0 -239 -99q-89 -84 -96 -166l-51 -652h-165zM381 1203q16 93 73 152q57 58 143 58q50 0 104 -23 q102 -45 140 -45q76 0 94 90h108q-26 -149 -133 -199q-36 -16 -72.5 -16t-68 10.5t-63.5 23.5q-84 34 -122 34q-81 0 -98 -85h-105z" />
<glyph unicode="&#xf2;" horiz-adv-x="1238" d="M130 511q17 231 168 381q158 159 404 159q129 0 223.5 -42t153.5 -115q120 -148 101 -381q-19 -228 -166 -377q-157 -159 -400 -159q-247 0 -378 156q-125 148 -106 378zM303 509q-15 -166 67 -279q87 -121 258 -121q167 0 270 121q94 109 108 282q6 81 -9 155t-53 129 q-84 121 -256 121q-167 0 -274 -123q-98 -116 -111 -285zM505 1492h214l222 -320h-129z" />
<glyph unicode="&#xf3;" horiz-adv-x="1238" d="M130 511q17 231 168 381q158 159 404 159q129 0 223.5 -42t153.5 -115q120 -148 101 -381q-19 -228 -166 -377q-157 -159 -400 -159q-247 0 -378 156q-125 148 -106 378zM303 509q-15 -166 67 -279q87 -121 258 -121q167 0 270 121q94 109 108 282q6 81 -9 155t-53 129 q-84 121 -256 121q-167 0 -274 -123q-98 -116 -111 -285zM492 1172l251 320h212l-333 -320h-130z" />
<glyph unicode="&#xf4;" horiz-adv-x="1238" d="M130 511q17 231 168 381q158 159 404 159q129 0 223.5 -42t153.5 -115q120 -148 101 -381q-19 -228 -166 -377q-157 -159 -400 -159q-247 0 -378 156q-125 148 -106 378zM303 509q-15 -166 67 -279q87 -121 258 -121q167 0 270 121q94 109 108 282q6 81 -9 155t-53 129 q-84 121 -256 121q-167 0 -274 -123q-98 -116 -111 -285zM404 1170l253 324h157l204 -324h-132l-161 216l-195 -216h-126z" />
<glyph unicode="&#xf5;" horiz-adv-x="1238" d="M130 511q17 231 168 381q158 159 404 159q129 0 223.5 -42t153.5 -115q120 -148 101 -381q-19 -228 -166 -377q-157 -159 -400 -159q-247 0 -378 156q-125 148 -106 378zM303 509q-15 -166 67 -279q87 -121 258 -121q167 0 270 121q94 109 108 282q6 81 -9 155t-53 129 q-84 121 -256 121q-167 0 -274 -123q-98 -116 -111 -285zM392 1203q16 93 73 152q57 58 143 58q50 0 104 -23q102 -45 140 -45q76 0 94 90h108q-26 -149 -133 -199q-36 -16 -72.5 -16t-68 10.5t-63.5 23.5q-84 34 -122 34q-81 0 -98 -85h-105z" />
<glyph unicode="&#xf6;" horiz-adv-x="1238" d="M130 511q17 231 168 381q158 159 404 159q129 0 223.5 -42t153.5 -115q120 -148 101 -381q-19 -228 -166 -377q-157 -159 -400 -159q-247 0 -378 156q-125 148 -106 378zM303 509q-15 -166 67 -279q87 -121 258 -121q167 0 270 121q94 109 108 282q6 81 -9 155t-53 129 q-84 121 -256 121q-167 0 -274 -123q-98 -116 -111 -285zM469 1246l13 163h164l-14 -163h-163zM801 1246l13 163h164l-13 -163h-164z" />
<glyph unicode="&#xf7;" horiz-adv-x="1458" d="M238 485l9 139h1047l-10 -139h-1046zM620 21l17 210h217l-17 -210h-217zM688 873l16 210h217l-16 -210h-217z" />
<glyph unicode="&#xf8;" horiz-adv-x="1238" d="M136 360q-31 184 46 360q87 204 291 288q102 43 208.5 43t179.5 -20l124 246l100 -32l-127 -252q183 -97 218 -329q11 -72 3.5 -165.5t-49.5 -191t-114 -171.5q-158 -159 -402 -159q-85 0 -158 20l-131 -258l-96 32l132 263q-187 96 -225 326zM303 509q-18 -229 125 -339 l368 732q-51 15 -123 15t-140.5 -33.5t-117.5 -89.5q-99 -115 -112 -285zM520 124q48 -15 122.5 -15t142 33t115 88.5t74 128t34 166.5t-21 184.5t-98.5 145.5z" />
<glyph unicode="&#xf9;" horiz-adv-x="1217" d="M188 399l49 627h165l-49 -627q-12 -143 44 -216.5t189 -73.5q138 0 229 97q87 93 97 230l46 590h165l-61 -780q-12 -163 -11 -246h-170l7 135q-128 -158 -350 -158q-269 0 -334 224q-25 88 -16 198zM495 1492h214l222 -320h-129z" />
<glyph unicode="&#xfa;" horiz-adv-x="1217" d="M188 399l49 627h165l-49 -627q-12 -143 44 -216.5t189 -73.5q138 0 229 97q87 93 97 230l46 590h165l-61 -780q-12 -163 -11 -246h-170l7 135q-128 -158 -350 -158q-269 0 -334 224q-25 88 -16 198zM481 1172l251 320h212l-333 -320h-130z" />
<glyph unicode="&#xfb;" horiz-adv-x="1217" d="M188 399l49 627h165l-49 -627q-12 -143 44 -216.5t189 -73.5q138 0 229 97q87 93 97 230l46 590h165l-61 -780q-12 -163 -11 -246h-170l7 135q-128 -158 -350 -158q-269 0 -334 224q-25 88 -16 198zM393 1170l253 324h157l204 -324h-132l-161 216l-195 -216h-126z" />
<glyph unicode="&#xfc;" horiz-adv-x="1217" d="M188 399l49 627h165l-49 -627q-12 -143 44 -216.5t189 -73.5q138 0 229 97q87 93 97 230l46 590h165l-61 -780q-12 -163 -11 -246h-170l7 135q-128 -158 -350 -158q-269 0 -334 224q-25 88 -16 198zM458 1246l13 163h164l-14 -163h-163zM790 1246l13 163h164l-13 -163 h-164z" />
<glyph unicode="&#xfd;" horiz-adv-x="1069" d="M84 -314q216 55 298 196q23 39 39 75l21 49l-345 1020h181l265 -855l408 855h175l-540 -1098q-104 -215 -285 -310q-62 -32 -134 -45zM407 1172l251 320h212l-333 -320h-130z" />
<glyph unicode="&#xfe;" horiz-adv-x="1239" d="M124 -427l148 1882h167l-45 -573q141 169 356 169q231 0 344 -155q105 -145 86 -369q-17 -229 -148 -383q-141 -167 -361.5 -167t-337.5 158l-44 -562h-165zM361.5 494q-6.5 -83 9 -153.5t51.5 -122.5q78 -109 230 -109q160 0 254 125q83 110 98 287q21 272 -136 363 q-58 33 -148 33t-155.5 -35t-108.5 -93.5t-65.5 -135t-29 -159.5z" />
<glyph unicode="&#xff;" horiz-adv-x="1069" d="M84 -314q216 55 298 196q23 39 39 75l21 49l-345 1020h181l265 -855l408 855h175l-540 -1098q-104 -215 -285 -310q-62 -32 -134 -45zM384 1246l13 163h164l-14 -163h-163zM716 1246l13 163h164l-13 -163h-164z" />
<glyph unicode="&#x152;" horiz-adv-x="2099" d="M172 729q24 333 233 541q215 213 549 213q171 0 306 -102l6 75h803l-12 -148h-631l-38 -488h593l-12 -148h-593l-41 -524h661l-12 -148h-833l8 105q-153 -128 -326 -128t-301 53t-213 151q-175 202 -147 548zM355 725q-21 -263 100 -426q129 -174 382 -174q191 0 335 140 l75 954q-122 116 -312 116q-249 0 -411 -184q-148 -168 -169 -426z" />
<glyph unicode="&#x153;" horiz-adv-x="1970" d="M132 509q17 231 168 383q158 161 403 161q285 0 388 -232q129 232 409 232q216 0 324 -145q104 -138 85 -383l-4 -53l-755 -2q-20 -251 146 -334q55 -27 145.5 -27t180 49.5t149.5 133.5l81 -86q-149 -234 -445 -234q-136 0 -232.5 58.5t-136.5 178.5q-17 -51 -68 -102 t-106 -79q-109 -56 -244.5 -56t-228.5 42t-153 115q-125 152 -106 380zM305 507q-15 -170 65 -279q85 -119 258 -119q159 0 256 121q88 109 102 284q6 83 -8 157.5t-50 128.5q-77 117 -244 117q-161 0 -268 -123q-98 -116 -111 -287zM1161 609h582q12 137 -50 221 q-65 87 -198 87q-132 0 -227 -93q-90 -88 -107 -215z" />
<glyph unicode="&#x178;" horiz-adv-x="1266" d="M125 1456h191l374 -729l492 729h191l-612 -871l-46 -585h-172l46 582zM538 1676l13 163h164l-14 -163h-163zM870 1676l13 163h164l-13 -163h-164z" />
<glyph unicode="&#x2c6;" horiz-adv-x="699" d="M127 1170l253 324h157l204 -324h-132l-161 216l-195 -216h-126z" />
<glyph unicode="&#x2dc;" horiz-adv-x="663" d="M109 1203q16 93 73 152q57 58 143 58q50 0 104 -23q102 -45 140 -45q76 0 94 90h108q-26 -149 -133 -199q-36 -16 -72.5 -16t-68 10.5t-63.5 23.5q-84 34 -122 34q-81 0 -98 -85h-105z" />
<glyph unicode="&#x2000;" horiz-adv-x="980" />
<glyph unicode="&#x2001;" horiz-adv-x="1960" />
<glyph unicode="&#x2002;" horiz-adv-x="980" />
<glyph unicode="&#x2003;" horiz-adv-x="1960" />
<glyph unicode="&#x2004;" horiz-adv-x="653" />
<glyph unicode="&#x2005;" horiz-adv-x="490" />
<glyph unicode="&#x2006;" horiz-adv-x="326" />
<glyph unicode="&#x2007;" horiz-adv-x="326" />
<glyph unicode="&#x2008;" horiz-adv-x="245" />
<glyph unicode="&#x2009;" horiz-adv-x="392" />
<glyph unicode="&#x200a;" horiz-adv-x="108" />
<glyph unicode="&#x2010;" horiz-adv-x="728" d="M118 489l10 137h571l-10 -137h-571z" />
<glyph unicode="&#x2011;" horiz-adv-x="728" d="M118 489l10 137h571l-10 -137h-571z" />
<glyph unicode="&#x2012;" horiz-adv-x="728" d="M118 489l10 137h571l-10 -137h-571z" />
<glyph unicode="&#x2013;" horiz-adv-x="1085" d="M32 489l11 137h1090l-11 -137h-1090z" />
<glyph unicode="&#x2014;" horiz-adv-x="2171" d="M35 489l11 137h2163l-11 -137h-2163z" />
<glyph unicode="&#x2018;" horiz-adv-x="553" d="M211 1023l189 440h132l-139 -440h-182z" />
<glyph unicode="&#x2019;" horiz-adv-x="553" d="M221 1023l140 440h181l-189 -440h-132z" />
<glyph unicode="&#x201a;" horiz-adv-x="553" d="M106 -238l141 439h181l-189 -439h-133z" />
<glyph unicode="&#x201c;" horiz-adv-x="1024" d="M260 1023l189 440h133l-140 -440h-182zM609 1023l189 440h133l-139 -440h-183z" />
<glyph unicode="&#x201d;" horiz-adv-x="1024" d="M289 1023l139 440h182l-188 -440h-133zM615 1023l140 440h182l-189 -440h-133z" />
<glyph unicode="&#x201e;" horiz-adv-x="1024" d="M159 -238l140 439h182l-188 -439h-134zM518 -238l139 439h183l-189 -439h-133z" />
<glyph unicode="&#x2022;" horiz-adv-x="989" d="M212 694q10 128 120 222q108 94 246 94t229 -91t81 -219q-5 -64 -37 -121t-81 -101q-107 -93 -246 -93q-142 0 -232 91q-90 92 -80 218z" />
<glyph unicode="&#x2026;" horiz-adv-x="1620" d="M158 -11l17 210h217l-17 -210h-217zM698 -11l17 210h217l-17 -210h-217zM1238 -11l17 210h217l-17 -210h-217z" />
<glyph unicode="&#x202f;" horiz-adv-x="392" />
<glyph unicode="&#x2039;" horiz-adv-x="642" d="M148 541l303 373h159l-292 -373l226 -370h-156z" />
<glyph unicode="&#x203a;" horiz-adv-x="642" d="M116 171l291 371l-225 372h155l242 -372l-306 -371h-157z" />
<glyph unicode="&#x205f;" horiz-adv-x="490" />
<glyph unicode="&#x20ac;" d="M119 516l31 138h102q0 49 9 130h-124l33 138h121q62 239 215 378q161 148 391 148q200 0 314 -118l-51 -189q-94 162 -281 162q-227 0 -351 -233q-37 -70 -60 -148h592l-31 -138h-590q-6 -32 -9 -128v-2h575l-30 -138h-542q16 -282 193 -362q63 -29 151 -29 q156 0 327 128l-15 -178q-149 -96 -339 -96q-237 0 -365 149q-118 136 -131 388h-135z" />
<glyph unicode="&#x2122;" horiz-adv-x="1869" d="M176 1350l8 101h638l-9 -101h-260l-52 -664h-124l52 664h-253zM873 686l60 765h190l193 -551l293 551h180l-60 -765h-122l47 595l-321 -595h-80l-213 594l-46 -594h-121z" />
<glyph unicode="&#xe000;" horiz-adv-x="1025" d="M0 0v1025h1025v-1025h-1025z" />
<glyph unicode="&#xfb01;" horiz-adv-x="1205" d="M118 919l7 107h201l11 112q18 179 86 269q81 107 241 107q50 0 83 -8.5t51 -12.5l-8 -129q-36 15 -98 15t-94.5 -14t-51.5 -41q-35 -51 -43 -162l-12 -136h247l-7 -107h-248l-72 -919h-165l72 919h-200zM869 0l81 1026h165l-81 -1026h-165zM980 1307l12 155h153l-12 -155 h-153z" />
<glyph unicode="&#xfb02;" horiz-adv-x="1205" d="M118 919l7 107h201l11 112q18 179 86 269q81 107 241 107q50 0 83 -8.5t51 -12.5l-8 -129q-36 15 -98 15t-94.5 -14t-51.5 -41q-35 -51 -43 -162l-12 -136h247l-7 -107h-248l-72 -919h-165l72 919h-200zM870 0l117 1492h165l-117 -1492h-165z" />
</font>
</defs>
</svg>
